<svg xmlns="http://www.w3.org/2000/svg" viewBox="0 0 229.41 366.57"><defs><style>.cls-1{fill:#b32335;}.cls-2{fill:#2f3e89;}.cls-3{fill:#f1863d;fill-rule:evenodd;}</style></defs><g id="Capa_2" data-name="Capa 2"><g id="Capa_1-2" data-name="Capa 1"><path class="cls-1" d="M83.26,170.29,45.11,0H81.74L93.87,73.52c3,18.19,6.57,39.16,8.84,59.12h.51c2.27-20.21,5-40.67,8.08-59.88L122.93,0h36.38L120.4,170.29Z"/><path class="cls-2" d="M33.1,190.5V301.16c0,25,7.58,32.59,16.17,32.59,9.6,0,16.42-6.82,16.42-32.59V190.5h33.1V295.35c0,43.71-16.42,67.46-49.27,67.46C13.9,362.81,0,338.3,0,295.6V190.5Z"/><path class="cls-2" d="M128.22,326.93c6.82,3.79,18.45,6.57,28.05,6.57,15.66,0,23.24-8.08,23.24-19.2,0-12.38-7.58-18.44-22-27.79-23.24-14.15-32.09-32.09-32.09-47.5,0-27.29,18.19-50,53.82-50,11.11,0,21.73,3,26.78,6.07l-5.31,28.55A40.58,40.58,0,0,0,179,217.79c-14.14,0-21,8.59-21,17.68,0,10.11,5.06,15.41,23.5,26.53,22.49,13.64,30.83,30.83,30.83,48.76,0,31.08-23,51.54-56.35,51.54-13.64,0-27-3.53-32.59-6.82Z"/><path class="cls-3" d="M111.16,96.12C30.42,155.41-16.69,251.2,27.56,366.57-3.85,255.5,44.09,166.45,121.28,111.06l-1.5-6.79a7.31,7.31,0,0,0-2.94-4.3Z"/><path class="cls-3" d="M229.19,27.75a2,2,0,0,0-.34-.86,2.29,2.29,0,0,0-.68-.63c-11.73-6.89-25.3,1.85-35.72,9.84L128.08,85.63l-14.48-7a7.21,7.21,0,0,0-7.38.57l-3.15,2.13,18.07,12.31a14.88,14.88,0,0,1,6.1,8.95L132,124l3.16-2.16a7.26,7.26,0,0,0,3.23-6.67l-1.19-16,31.16-18.66c.36.9.71,1.79,1,2.71l16.16,50.6a17.92,17.92,0,0,0,7.11-15.95L189,68.1l17.94-10.74C218.19,50.62,231.31,41.21,229.19,27.75Z"/><path class="cls-3" d="M169.91,46,131,27.21a17.93,17.93,0,0,0-17.44.79l38.7,31.57Z"/></g></g></svg>