<svg xmlns="http://www.w3.org/2000/svg" viewBox="0 0 242.94 401.87"><defs><style>.cls-1,.cls-2{fill:#fff;}.cls-2{fill-rule:evenodd;}</style></defs><g id="Capa_2" data-name="Capa 2"><g id="Capa_1-2" data-name="Capa 1"><path class="cls-1" d="M135.69,331.16c6.82,3.79,18.44,6.57,28,6.57,15.67,0,23.25-8.09,23.25-19.21,0-12.38-7.58-18.44-22-27.79-23.25-14.15-32.09-32.09-32.09-47.5,0-27.28,18.19-50,53.82-50,11.11,0,21.72,3,26.78,6.06l-5.31,28.55A40.61,40.61,0,0,0,186.47,222c-14.15,0-21,8.59-21,17.69,0,10.1,5.06,15.41,23.5,26.52,22.49,13.65,30.82,30.83,30.82,48.77,0,31.07-23,51.54-56.34,51.54-13.64,0-27-3.54-32.59-6.82Z"/><path class="cls-2" d="M115.46,104.21c-83,65.25-131.4,170.68-85.92,297.66-32.28-122.24,17-220.25,96.32-281.22l-1.54-7.47a8.08,8.08,0,0,0-3-4.73Z"/><path class="cls-1" d="M31.67,199.6H0V304.71C0,322.41,2.4,337,7.73,348-5.35,256.27,22.5,211.5,31.67,199.6Z"/><path class="cls-1" d="M73.16,194.72V305.39c0,25.77-6.82,32.59-16.42,32.59-8.59,0-16.17-7.58-16.17-32.59V242.77C25.7,290.28,33.4,348.06,35.84,363.23A54.36,54.36,0,0,0,57,367c32.84,0,49.27-23.75,49.27-67.46V194.72Z"/><path class="cls-1" d="M105.63,104c-1.42-9.1-2.91-18-4.29-26.27L89.21,4.22H52.58L80.45,128.64C85.51,122.39,95.27,111.22,105.63,104Z"/><path class="cls-2" d="M180.26,40l-40-20.66a17.38,17.38,0,0,0-17.93.87L162.12,55Z"/><path class="cls-1" d="M141.36,15.28l22.18,10.18L169.35,0H133l-2.08,13A24.49,24.49,0,0,1,141.36,15.28Z"/><path class="cls-1" d="M121.34,71.4l19.44,10,10.73-8.84,4.06-17.76L127,28.53l-6.77,42.4A11.21,11.21,0,0,1,121.34,71.4Z"/><path class="cls-1" d="M138.25,109.8a21.53,21.53,0,0,0-8.2-12.87l-13.13-9.58q-.94,6.3-1.86,12.72a25.52,25.52,0,0,1,3.4-1l12,5.63,2.69,15.06L87.72,164.63l2.53,11.31h37.14l12.9-56.43Z"/><path class="cls-2" d="M242.71,25.94a2,2,0,0,0-.33-.91,2.25,2.25,0,0,0-.67-.67c-11.64-7.33-25.11,2-35.45,10.45L142.39,87.43,128,80a6.77,6.77,0,0,0-7.33.61l-3.13,2.26L135.5,96a15.93,15.93,0,0,1,6.06,9.5l4.75,22.69,3.13-2.29a7.91,7.91,0,0,0,3.21-7.09l-1.18-17L182.39,81.9c.35.95.7,1.9,1,2.87l16,53.77a19.57,19.57,0,0,0,7-16.95l-3.64-52.78L220.6,57.39C231.8,50.23,244.82,40.24,242.71,25.94Z"/></g></g></svg>