<svg width="47" height="35" viewBox="0 0 47 35" fill="none" xmlns="http://www.w3.org/2000/svg">
<path d="M12.89 34.4C5.89 34.4 0.57 29.43 0.57 20.4C0.57 13.19 4.56 7.03 11.77 3.46C15.34 1.71 19.19 0.799996 23.11 0.799996L24.51 2.76C20.94 2.76 13.66 4.79 10.23 8.78C8.48 10.81 7.57 12.49 7.57 13.82C8.34 12.84 11.28 11.86 14.29 11.86C18 11.86 20.87 13.4 22.83 16.48C24.93 7.17 34.17 0.799996 44.95 0.799996L46.35 2.76C42.78 2.76 35.5 4.79 32.07 8.78C30.32 10.81 29.41 12.49 29.41 13.82C30.18 12.84 33.12 11.86 36.13 11.86C42.22 11.86 46.49 16.76 46.49 22.78C46.49 29.5 41.87 34.4 34.73 34.4C29.83 34.4 25.7 31.81 23.81 27.54C22.06 31.81 18.21 34.4 12.89 34.4Z" fill="#2F3E89"/>
</svg>
