<svg xmlns="http://www.w3.org/2000/svg" viewBox="0 0 224.69 224.09"><defs><style>.cls-1{fill:#3561ab;}</style></defs><g id="Capa_2" data-name="Capa 2"><g id="Capa_1-2" data-name="Capa 1"><path class="cls-1" d="M224.69,101.21v23.88c-.86,3.53-.78,7.17-1.12,10.76-1.78,18.66-10.55,34.23-21.79,48.59-12.45,15.9-28.56,26.93-47.14,34.64-8.29,3.44-17,4.14-25.71,5-3,.29-4.76-1-5-4.11-.06-1-.16-2-.16-3-.06-21.22-.11-42.44,0-63.66,0-7.58,1.11-8.51,8.75-8.69,5.31-.12,10.62-.08,15.92,0,4.19,0,6.46-1.89,7.15-6,1-6,2.41-12,3.19-18.11.58-4.5-.44-5.72-5-5.85-6.8-.2-13.6,0-20.4-.1-8.77-.12-9.47-.91-9.66-9.85a65.5,65.5,0,0,1,1.13-13.84c1.5-7.85,6-13.08,13.58-15.68,5.56-1.93,11.33-2.26,17.17-2.24s6.83-1,6.91-7q.09-6.72,0-13.43c-.06-3.18-1.29-5.7-4.61-6.16-15.38-2.12-30.73-3.1-45.48,3.36C100.82,54.76,94,64,90.83,76c-2.52,9.51-3,19.28-3.1,29.08-.08,8.58-.89,9.33-9.47,9.49h-1.5c-11.88.11-11.88.11-11.88,12.25,0,4.14-.06,8.29.07,12.43.1,3.41,1.86,5.16,5.27,5.29,3.15.11,6.3,0,9.45.12,6.72.24,7.78,1.28,8,7.9.14,3.48.07,7,.07,10.44,0,17.08.1,34.15-.06,51.23-.08,8.06-2.31,9.79-9.72,7.28C39.75,208.54,14.54,182.6,3,144.07-.82,131.26-.17,117.55.54,104.16c.52-9.71.54-19.48,4.07-28.83C18.34,39,43.42,14.42,80.61,3.16c13-3.93,26.88-3.33,40.46-2.7,9.9.46,19.83.65,29.34,4.22,35.09,13.17,58.92,37.28,71,72.76C223.7,84,223.61,91,224.19,97.87,224.29,99,223.87,100.19,224.69,101.21Z"/></g></g></svg>