<svg xmlns="http://www.w3.org/2000/svg" viewBox="0 0 315.85 323.33"><defs><style>.cls-1{fill:#e84436;}.cls-2{fill:#32a853;}.cls-3{fill:#517cbe;}.cls-4{fill:#fbbc0c;}</style></defs><g id="Capa_2" data-name="Capa 2"><g id="Capa_1-2" data-name="Capa 1"><path class="cls-1" d="M17.62,89.21C40,45.82,74.62,17.09,121.81,5.4,175-7.77,223.49,3.06,265.81,38.89c3.27,2.77,3.09,4.13.14,7-13.33,13-26.43,26.27-39.52,39.53-2,2.06-3.28,2.85-6,.47C181.93,51.65,117.33,57.42,83.69,105.54c-5.46,7.81-9.32,16.4-12.93,25.14-1.81.89-2.74-.65-3.84-1.49-15.46-11.8-30.6-24-46.14-35.71C19.31,92.37,17.82,91.26,17.62,89.21Z"/><path class="cls-2" d="M268.23,284c-18.1,17.61-39.82,28.85-64.16,34.29-61.72,13.79-115.75-.46-160.4-46.36A150.09,150.09,0,0,1,17.28,234c2.68-4.9,7.77-7.13,11.85-10.38,11.94-9.53,24.05-18.83,36.1-28.22,1.58-1.23,3-3.27,5.51-2.62,5.81,14.87,13.69,28.37,25.27,39.57,31.31,30.28,80.11,35.84,117.44,13.27,1-.59,2-1.12,3-1.67a5.42,5.42,0,0,1,3.23,1.07q23.56,18.17,47,36.56A3.14,3.14,0,0,1,268.23,284Z"/><path class="cls-3" d="M268.23,284l-51.75-40c15.81-11.41,26.58-26.2,31.27-45.4,1.1-4.52-.3-4.91-4.11-4.89-25.77.12-51.54,0-77.31.16-4,0-5-1.08-4.91-5q.32-26.24,0-52.47c0-4,1.19-4.92,5-4.91q71.07.18,142.14.08c2.26,0,4.43-.53,4.92,3.07,7.69,56-2.55,106.64-43.69,148.16A14.16,14.16,0,0,1,268.23,284Z"/><path class="cls-4" d="M70.74,192.81,17.28,234q-34.39-71.71-.49-143.65a7.86,7.86,0,0,1,.83-1.18l48.05,37.55q2.53,2,5.09,3.94c-1.32,6.63-3.24,13.12-4.11,19.88C64.79,165,67.13,179,70.74,192.81Z"/></g></g></svg>