<svg xmlns="http://www.w3.org/2000/svg" viewBox="0 0 159.41 119.51"><g id="Capa_2" data-name="Capa 2"><g id="Capa_1-2" data-name="Capa 1"><g id="LhV5eM.tif"><path d="M159.41,35.39V98.06c0,12.71-8.74,21.45-21.45,21.45H21.34C8.77,119.5,0,110.76,0,98.21Q0,68.08,0,37.93c0-.64.07-1.29.13-2.41,1,.62,1.77,1,2.44,1.51Q28.82,56.61,55,76.19c4.05,3,8.08,6.1,12.17,9.07,8.24,6,16.89,6,25.07-.05,9.48-7,18.89-14.1,28.33-21.15L156.92,37C157.55,36.5,158.25,36.12,159.41,35.39Z"/><path d="M79.57,0c20.6,0,41.2,0,61.81.06a27.75,27.75,0,0,1,8.54,1.32c9.45,3.16,12.73,16.45,5.43,23.25-5.62,5.24-12,9.64-18.18,14.28Q112.32,57.67,87.38,76.29c-5.64,4.23-9.72,4.22-15.34,0Q39.67,52,7.29,27.74A18.27,18.27,0,0,1,.85,19.45C-2,12.14,3.39,1,13.31.43c2.06-.11,4.13-.4,6.2-.4Q49.54,0,79.57,0Z"/></g></g></g></svg>