<svg xmlns="http://www.w3.org/2000/svg" viewBox="0 0 159.44 119.51"><g id="Capa_2" data-name="Capa 2"><g id="Capa_1-2" data-name="Capa 1"><g id="tCS1Nu.tif"><path d="M79.57,119.5H21.51C8.74,119.5,0,110.82,0,98.12V21.4C0,11.09,5.22,3.86,15.13.88A25.63,25.63,0,0,1,22.51,0Q79.71,0,136.89,0c7.3,0,13.74,2,18.39,8.11a19.48,19.48,0,0,1,4.07,12.05q.14,39.48,0,79c-.06,11.78-9.06,20.34-21,20.36C118.78,119.53,99.17,119.5,79.57,119.5Zm.1-104.57H21.35c-4.82,0-6.56,1.77-6.6,6.64a11.92,11.92,0,0,0,.05,3.22,6.65,6.65,0,0,0,1.65,3.32Q42.34,49.56,68.34,70.86c6.39,5.23,16.55,5.25,22.85.07,16.6-13.66,33.12-27.41,49.81-41,2.82-2.28,4-4.62,3.74-8.2-.34-5.13-1.82-6.84-7-6.84ZM15.44,46.46l-.7.43V49.6q0,24,0,48.08c0,5.57,1.5,7,7.12,7H137.53c5.61,0,7.12-1.5,7.13-7.06q0-24,0-48.08c0-1-.1-1.89-.18-3.35-1.23.85-2.05,1.34-2.79,1.94-8.28,6.8-16.51,13.65-24.82,20.41-6.5,5.28-13,10.65-19.7,15.61a28.76,28.76,0,0,1-18.08,5.33c-8.37-.26-15.68-3.65-22.14-9C44.32,70,31.57,59.57,18.87,49.13,17.76,48.21,16.59,47.35,15.44,46.46Z"/></g></g></g></svg>