<svg xmlns="http://www.w3.org/2000/svg" viewBox="0 0 159.72 159.29"><g id="Capa_2" data-name="Capa 2"><g id="Capa_1-2" data-name="Capa 1"><g id="f4rnM1.tif"><path d="M80.7,159.25c-2.58-.14-5.15-.3-7.73-.42-1.6-.06-2.28-.62-1.76-2.35,1.51-4.91,3-9.83,4.32-14.79.49-1.86,1.37-2.37,3.27-2.4,9.4-.16,18.56-1.63,27.08-5.82,17.25-8.47,28.4-22,32.46-40.75,4.55-21-.69-39.71-15.66-55.27C112.58,27,100,21.31,85.34,20.14c-13.72-1.09-26.56,1.54-38,9.14-15.63,10.36-24.7,24.93-26.8,43.66A49.63,49.63,0,0,0,20,81.63c.08,1.27-.42,1.72-1.58,2-5.11,1.43-10.23,2.87-15.3,4.47-1.87.59-2.47.18-2.72-1.75-.87-6.77,0-13.46,1-20.09C3.13,54.2,8,43.29,15,33.3a77.81,77.81,0,0,1,21-20.23A78.52,78.52,0,0,1,75.07.19a78.06,78.06,0,0,1,45.37,10.66,77.35,77.35,0,0,1,31.5,34.34,78.88,78.88,0,0,1,7.48,41.31,75.78,75.78,0,0,1-16.51,42c-11.88,14.79-27,24.92-45.91,28.78C91.61,158.34,86.25,159.51,80.7,159.25Z"/><path d="M82.35,82.74c-.29,3.08-1.63,6.42-2.61,9.82C74.6,110.3,69.32,128,64.13,145.72c-.69,2.36-1.61,4.48-4.39,4.74s-4.7-1.18-5.92-3.66q-3.69-7.47-7.47-14.9c-1.49-3-1.55-3-3.85-.68-8.19,8.16-16.32,16.36-24.52,24.51-4,3.93-9.16,4.63-13.37,1.94a10.12,10.12,0,0,1-3.16-13.39,16.51,16.51,0,0,1,2.9-3.71l23.89-23.73c2.29-2.29,2.27-2.38-.71-3.82-5.08-2.46-10.14-5-15.22-7.41a5.33,5.33,0,0,1-3.43-5.26A4.14,4.14,0,0,1,12.19,96L74.74,77.5C79.57,76.07,82.29,77.77,82.35,82.74Z"/><path d="M81.57,35c11.23.36,20.85,4.74,29.11,12a41.33,41.33,0,0,1,13.15,23.72c2,10.31.89,20.32-4.15,29.68a43.94,43.94,0,0,1-27.17,22.1c-3.34,1-6.72,1.06-10.06,1.67-1.31.24-1.67-.5-1.34-1.62,1.78-6,3.59-11.89,5.39-17.83a2.88,2.88,0,0,1,2-1.93c15.88-5.68,20.68-23.1,12.46-36.6C96,58,85,52.82,75.14,55.3c-8.8,2.22-15.37,6.88-18.56,15.6a3.26,3.26,0,0,1-2.39,2.24C48.6,74.74,43,76.37,37.47,78.07c-1.79.54-2.24.32-2.09-1.74,1-14.69,8-26,19.94-34.22C63.11,36.74,72.12,34.76,81.57,35Z"/></g></g></g></svg>