<svg xmlns="http://www.w3.org/2000/svg" viewBox="0 0 159.18 159.34"><g id="Capa_2" data-name="Capa 2"><g id="Capa_1-2" data-name="Capa 1"><g id="_6N99lH.tif" data-name="6N99lH.tif"><path d="M133.9,159.33A138,138,0,0,1,97,152.83a136.52,136.52,0,0,1-49-27.76,140.2,140.2,0,0,1-37.44-51.8C3.66,56.94.51,39.8,0,22.15-.21,14.4,3.34,9.52,10.73,7.39,18.86,5,27,2.66,35.18.59c6-1.53,13.13-.47,16.32,7.89C55.08,17.84,59.25,27,63.05,36.25c2.77,6.77,1.2,12.22-4.68,17-3.93,3.2-7.84,6.41-11.84,9.52-1.47,1.14-1.6,2.17-.78,3.81a102.55,102.55,0,0,0,40.86,43.75c2.15,1.25,4.46,2.22,6.62,3.43,1.4.78,2.25.38,3.17-.77,3.25-4.1,6.55-8.15,9.87-12.2,4.78-5.83,10.4-7.27,17.29-4.39,9.1,3.8,18.12,7.81,27.29,11.46,7.76,3.08,9.39,9.46,7.76,16.46-2,8.39-4.44,16.65-6.74,25a13.37,13.37,0,0,1-13.24,10.06Z"/></g></g></g></svg>