<svg xmlns="http://www.w3.org/2000/svg" viewBox="0 0 159.51 136.29"><g id="Capa_2" data-name="Capa 2"><g id="Capa_1-2" data-name="Capa 1"><g id="RiWTXc.tif"><path d="M43.31.11c14-.07,24.91,4.71,33.9,14,2.53,2.62,2.54,2.64,4.94.11C93,2.88,106.44-1.76,121.74.6,136.44,2.86,147.67,11,154.5,24.38A47.36,47.36,0,0,1,144.7,80C126.27,97.12,108,114.47,89.62,131.64c-6.67,6.22-13.12,6.19-19.86-.08-16.11-15-32.12-30.13-48.17-45.2C16.32,81.42,10.76,76.74,7,70.45c-7-11.61-8.6-24-5.37-37.13A42.52,42.52,0,0,1,20.93,6.86C27.9,2.46,35.71-.35,43.31.11Z"/></g></g></g></svg>