<svg xmlns="http://www.w3.org/2000/svg" viewBox="0 0 179.24 139.27"><g id="Capa_2" data-name="Capa 2"><g id="Capa_1-2" data-name="Capa 1"><g id="f84HF1.tif"><path d="M89.34,0c19,.23,36,6.41,51.11,17.76,16.79,12.59,29.05,28.78,37.8,47.74a9.57,9.57,0,0,1,0,8.4c-10.43,22.58-25.48,41.17-47.08,54a80.42,80.42,0,0,1-36.78,11.26c-23.61,1.38-43.76-6.75-61.51-21.78a121.18,121.18,0,0,1-29.1-37C2.63,78.1,1.67,75.7.69,73.32a9.93,9.93,0,0,1,.32-8A115.38,115.38,0,0,1,22.45,32.28C31.57,22.36,41.89,14,54.21,8.18A78.47,78.47,0,0,1,84.13.42C85.87.34,87.6.14,89.34,0Zm45,69.8a45,45,0,1,0-45,44.88A44.82,44.82,0,0,0,134.38,69.8Z"/><path d="M119.16,69.25c0,17.26-13.24,30.49-30.24,30.22a29.83,29.83,0,0,1-29.25-27c-.27-2.81,1-4,3.85-3.4,7,1.58,13.4.5,18.91-4.24a19.13,19.13,0,0,0,6.65-18.78c-1-5.56-.5-6.83,5.55-5.63C109.19,43.33,119.1,55.15,119.16,69.25Z"/></g></g></g></svg>