<svg xmlns="http://www.w3.org/2000/svg" viewBox="0 0 139.19 138.83"><g id="Capa_2" data-name="Capa 2"><g id="Capa_1-2" data-name="Capa 1"><g id="oqU7Mn.tif"><path d="M0,138.83c1.82-6.8,3.51-13.19,5.23-19.58,1.24-4.56,2.61-9.08,3.69-13.68a6.24,6.24,0,0,0-.45-4A68.09,68.09,0,0,1,.94,77,71.68,71.68,0,0,1,4.41,46c4.8-14,13.76-24.78,25.52-33.5A63.16,63.16,0,0,1,60.17.62c20.2-2.49,38.56,2.49,54.21,15.92A69.43,69.43,0,0,1,137.84,56c3,14.45.87,28.39-5.26,41.72-6,13.06-15.49,23.08-27.69,30.51a67.44,67.44,0,0,1-26.67,9c-7.91,1.05-15.8,1.12-23.48-1-5.56-1.52-10.88-3.92-16.35-5.8a7.38,7.38,0,0,0-4-.34C23.59,132.89,12.78,135.8,2,138.65A15.22,15.22,0,0,1,0,138.83Zm16.17-16c1.36-.2,2.17-.26,2.95-.46,5.62-1.43,11.22-3,16.87-4.29a7.15,7.15,0,0,1,3.95.4c3.53,1.41,6.9,3.24,10.46,4.58a55.07,55.07,0,0,0,36.84.81c14.7-4.63,25.66-14,33.13-27.34,6.26-11.19,8.79-23.25,6.73-36-1.92-11.87-7.38-22-15.64-30.79C93.93,11.09,67.75,6.38,45.51,16.86,25.51,26.27,14.2,42.51,12,64.62c-1.15,11.73,1.86,22.75,7.77,32.86a10.07,10.07,0,0,1,.92,9.08C19,111.74,17.76,117.06,16.17,122.83Z"/><path d="M87.18,102.11c-6.24-.08-11.79-2.62-17.24-5.17C55.65,90.24,45.55,79,37.87,65.61c-4.1-7.15-4.95-14.92-.51-22.52,2.85-4.89,6.08-6.55,11.58-5.74A3.38,3.38,0,0,1,51.2,39c2.19,4.82,4.31,9.68,6.21,14.63a4.81,4.81,0,0,1-.62,3.51,25,25,0,0,1-3.41,4.56,3.21,3.21,0,0,0-.44,4.24C57,73.5,63.12,78.9,70.51,83c1.23.68,2.48,1.35,3.72,2,4.15,2.23,4.36,2.22,7.49-1.41,1.24-1.44,2.34-3,3.45-4.56A2.7,2.7,0,0,1,89,78c4.55,2.19,9.14,4.32,13.73,6.44,1.68.77,1.92,2.09,1.69,3.72-1.17,8.34-7.25,13.72-15.76,13.91C88.17,102.12,87.67,102.11,87.18,102.11Z"/></g></g></g></svg>