<?xml version="1.0" encoding="utf-8"?>
<!-- Generator: Adobe Illustrator 25.4.1, SVG Export Plug-In . SVG Version: 6.00 Build 0)  -->
<svg version="1.1" id="Capa_1" xmlns="http://www.w3.org/2000/svg" xmlns:xlink="http://www.w3.org/1999/xlink" x="0px" y="0px"
	 viewBox="0 0 84.1 84.1" style="enable-background:new 0 0 84.1 84.1;" xml:space="preserve">
<style type="text/css">
	.st0{fill-rule:evenodd;clip-rule:evenodd;fill:#FFFFFF;}
	.st1{fill:#FFFFFF;}
</style>
<g id="Capa_2_00000067207040217696334640000011827065793131908277_">
	<g id="Text">
		<g id="Title">
			<g id="memorial_day">
				<path class="st0" d="M42,0c-23.2,0-42,18.8-42,42s18.8,42,42,42c23.2,0,42-18.8,42-42C84.1,18.9,65.3,0,42,0C42.1,0,42.1,0,42,0
					z M42,75.5c-18.5,0-33.5-15-33.5-33.5c0-18.5,15-33.5,33.5-33.5c18.5,0,33.5,15,33.5,33.5c0,0,0,0,0,0
					C75.6,60.6,60.6,75.5,42,75.5L42,75.5z"/>
				<g id="_9GCpMT.tif">
					<path class="st1" d="M61.5,41.4c-0.1,3.3-0.1,6.7-0.4,10c-0.3,3.3-2.3,6.2-5.1,7.8c-1.8,1-3.8,1.6-5.9,1.6
						c-5.7,0.3-11.5,0.3-17.2,0c-5-0.3-8.8-3.2-9.9-7.8c-0.4-2-0.6-4-0.6-6c0-5,0-10.1,0.3-15.2c0.2-3.6,2.3-6.8,5.5-8.3
						c1.6-0.9,3.5-1.5,5.3-1.5c5.6,0,11.2,0,16.8,0c5.3-0.1,9.9,3.7,10.8,9c0.2,1.7,0.3,3.3,0.3,5c0,1.8,0,3.6,0,5.5L61.5,41.4z
						 M58.1,41.4L58.1,41.4C58,40.7,58,40,58,39.3c-0.1-2.7-0.2-5.4-0.5-8.1c-0.4-2.8-2.6-5-5.3-5.5c-1.6-0.2-3.2-0.4-4.8-0.4
						c-4.8,0-9.7,0.1-14.5,0.2c-1.4,0-2.8,0.5-4,1.3c-1.9,1.5-3,3.8-2.9,6.2c-0.1,4.6-0.1,9.2-0.1,13.8c0,1.5,0.1,3.1,0.4,4.6
						c0.4,2.8,2.6,5.1,5.5,5.5c1.4,0.2,2.8,0.4,4.2,0.4c2.8,0.1,5.6,0.1,8.5,0c2.3,0,4.6-0.1,6.9-0.3c1.3-0.1,2.6-0.6,3.6-1.3
						c1.9-1.5,3.1-3.8,3-6.2C58,47,58,44.2,58.1,41.4L58.1,41.4z"/>
					<path class="st1" d="M31.9,40.8c0.4-5.5,5.1-9.7,10.6-9.3c5.5,0.4,9.7,5.1,9.3,10.6c-0.3,5.4-4.9,9.5-10.2,9.4
						c-5.4,0-9.8-4.5-9.8-9.9C31.9,41.3,31.9,41,31.9,40.8z M48.4,41.4c0-3.6-2.9-6.5-6.5-6.5c-3.6,0-6.6,2.9-6.6,6.5
						c0,3.6,2.9,6.6,6.6,6.6l0,0c3.6,0,6.5-2.9,6.5-6.5C48.4,41.5,48.4,41.5,48.4,41.4z"/>
					<path class="st1" d="M50.1,31c-0.1-1.2,0.8-2.2,2-2.3c0.1,0,0.1,0,0.2,0c1.3,0,2.3,0.9,2.3,2.2c0,0,0,0.1,0,0.1
						c-0.1,1.2-1,2.2-2.3,2.3C51.1,33.3,50.1,32.3,50.1,31C50.1,31,50.1,31,50.1,31z"/>
				</g>
			</g>
		</g>
	</g>
</g>
</svg>
