<?xml version="1.0" encoding="utf-8"?>
<!-- Generator: Adobe Illustrator 25.4.1, SVG Export Plug-In . SVG Version: 6.00 Build 0)  -->
<svg version="1.1" id="Capa_1" xmlns="http://www.w3.org/2000/svg" xmlns:xlink="http://www.w3.org/1999/xlink" x="0px" y="0px"
	 viewBox="0 0 84.1 84.1" style="enable-background:new 0 0 84.1 84.1;" xml:space="preserve">
<style type="text/css">
	.st0{fill-rule:evenodd;clip-rule:evenodd;fill:#FFFFFF;}
	.st1{fill:#FFFFFF;}
</style>
<g id="Capa_2_00000121977003641828155970000008946151361712084654_">
	<g id="Text">
		<g id="Title">
			<g id="memorial_day">
				<path class="st0" d="M42,0c-23.2,0-42,18.8-42,42s18.8,42,42,42c23.2,0,42-18.8,42-42C84.1,18.9,65.3,0,42,0C42.1,0,42.1,0,42,0
					z M42,75.5c-18.5,0-33.5-15-33.5-33.5c0-18.5,15-33.5,33.5-33.5c18.5,0,33.5,15,33.5,33.5c0,0,0,0,0,0
					C75.6,60.6,60.6,75.5,42,75.5L42,75.5z"/>
				<g id="fKRxgA.tif">
					<path class="st1" d="M43.2,45.9V64c0,1,0,1-1,1c-2.8,0-5.7,0-8.5,0c-0.7,0-0.9-0.2-0.9-0.8c0-5.8,0-11.6,0-17.5
						c0-0.7-0.2-0.9-0.9-0.9c-1.5,0-2.9,0-4.4,0c-0.5,0-0.7-0.2-0.7-0.7c0-2.4,0-4.8,0-7.2c0-0.6,0.2-0.8,0.8-0.8c1.5,0,2.9,0,4.4,0
						c0.7,0,0.8-0.2,0.8-0.8c0-2.3,0.1-4.6,0.3-6.9c0.4-5.3,4.5-9.6,9.8-10.2c3.2-0.4,6.5-0.3,9.7,0.3c0.3,0,0.5,0.3,0.5,0.6
						c0,0,0,0,0,0.1c0,2.3,0,4.5,0,6.8c0,0.5-0.2,0.5-0.6,0.5c-1.4,0-2.8-0.1-4.2,0c-1.6,0-3.1,0.7-4,2.1c-0.5,0.9-0.8,1.9-0.9,3
						c-0.2,1.2-0.1,2.5-0.1,3.8c0,0.5,0.2,0.6,0.7,0.6c2.6,0,5.3,0,7.9,0c0.7,0,0.8,0.2,0.7,0.8c-0.5,2.4-0.9,4.8-1.3,7.2
						c-0.1,0.5-0.3,0.7-0.9,0.7c-2.1,0-4.1,0-6.2,0L43.2,45.9z"/>
				</g>
			</g>
		</g>
	</g>
</g>
</svg>
