<svg xmlns="http://www.w3.org/2000/svg" viewBox="0 0 84.09 84.09"><defs><style>.cls-1,.cls-2{fill:#2f3e89;}.cls-1{fill-rule:evenodd;}</style></defs><g id="Capa_2" data-name="Capa 2"><g id="Text"><g id="Title"><g id="memorial_day" data-name="memorial day"><path class="cls-1" d="M42.05,0a42,42,0,1,0,42,42.05A42,42,0,0,0,42.05,0Zm0,75.55a33.51,33.51,0,1,1,33.5-33.5A33.5,33.5,0,0,1,42.05,75.55Z"/><g id="_9GCpMT.tif" data-name="9GCpMT.tif"><path class="cls-2" d="M61.55,41.43c-.13,3.33-.09,6.67-.42,10A10.13,10.13,0,0,1,56,59.23a12,12,0,0,1-5.93,1.59,167.06,167.06,0,0,1-17.19,0c-5-.3-8.76-3.21-9.92-7.82a25.75,25.75,0,0,1-.62-6c0-5,0-10.11.27-15.16a9.79,9.79,0,0,1,5.47-8.32A11.13,11.13,0,0,1,33.42,22c5.62,0,11.24,0,16.85,0A10.83,10.83,0,0,1,61.1,31,31.22,31.22,0,0,1,61.41,36c.05,1.82,0,3.64,0,5.45Zm-3.47,0H58c0-.7,0-1.4,0-2.1-.13-2.69-.18-5.4-.47-8.08a6.47,6.47,0,0,0-5.35-5.46,35.07,35.07,0,0,0-4.79-.42q-7.27,0-14.54.23a7,7,0,0,0-4,1.34,7.48,7.48,0,0,0-2.9,6.16q-.14,6.91-.1,13.84a30.75,30.75,0,0,0,.36,4.59,6.58,6.58,0,0,0,5.46,5.53,31.71,31.71,0,0,0,4.24.42c2.82.06,5.64.06,8.46,0,2.3,0,4.61-.14,6.91-.28a6.77,6.77,0,0,0,3.62-1.34,7.6,7.6,0,0,0,3-6.21C58,47,58,44.22,58.08,41.47Z"/><path class="cls-2" d="M31.93,40.8a10,10,0,1,1,9.73,10.64A9.85,9.85,0,0,1,31.93,40.8Zm16.51.65a6.55,6.55,0,0,0-6.54-6.53,6.55,6.55,0,1,0,0,13.1A6.5,6.5,0,0,0,48.44,41.45Z"/><path class="cls-2" d="M50.09,31a2.16,2.16,0,0,1,2.21-2.29A2.27,2.27,0,0,1,54.65,31a2.42,2.42,0,0,1-2.28,2.31A2.29,2.29,0,0,1,50.09,31Z"/></g></g></g></g></g></svg>