<?xml version="1.0" encoding="utf-8"?>
<!-- Generator: Adobe Illustrator 25.4.1, SVG Export Plug-In . SVG Version: 6.00 Build 0)  -->
<svg version="1.1" id="Capa_1" xmlns="http://www.w3.org/2000/svg" xmlns:xlink="http://www.w3.org/1999/xlink" x="0px" y="0px"
	 viewBox="0 0 84.1 84.1" style="enable-background:new 0 0 84.1 84.1;" xml:space="preserve">
<style type="text/css">
	.st0{fill-rule:evenodd;clip-rule:evenodd;fill:#FFFFFF;}
	.st1{fill:#FFFFFF;}
</style>
<g id="Capa_2_00000028284292463294112790000015853587581822655154_">
	<g id="Text">
		<g id="Title">
			<g id="memorial_day">
				<path class="st0" d="M42,0c-23.2,0-42,18.8-42,42s18.8,42,42,42c23.2,0,42-18.8,42-42C84.1,18.9,65.3,0,42,0C42.1,0,42.1,0,42,0
					z M42,75.5c-18.5,0-33.5-15-33.5-33.5c0-18.5,15-33.5,33.5-33.5c18.5,0,33.5,15,33.5,33.5c0,0,0,0,0,0
					C75.6,60.6,60.6,75.5,42,75.5L42,75.5z"/>
				<g id="yyCemX.tif">
					<path class="st1" d="M21.1,21.4h0.9c3.8,0,7.6,0,11.4,0c0.5,0,1,0.2,1.3,0.6c2.7,3.6,5.5,7.3,8.3,10.9c0.1,0.2,0.3,0.4,0.5,0.6
						l0.6-0.6c3.2-3.6,6.4-7.3,9.5-10.9c0.3-0.4,0.8-0.7,1.3-0.6c1.5,0,3,0,4.5,0c0.2,0,0.5,0,1,0c-0.4,0.5-0.7,0.9-1,1.2l-12.3,14
						c-0.7,0.8-0.7,0.8,0,1.7l15,20.1c0.2,0.3,0.4,0.5,0.7,0.9c-0.4,0-0.7,0-0.9,0c-3.7,0-7.4,0-11.1,0c-0.5,0-1-0.2-1.3-0.6
						c-3-4-6-8-9.1-11.9L39.8,46c-0.2,0.3-0.3,0.6-0.5,0.8c-3.5,4-7,8-10.4,12c-0.4,0.5-0.9,0.7-1.5,0.7c-1.7,0-3.5,0-5.4,0
						c0.1-0.2,0.3-0.5,0.5-0.7c4.6-5.3,9.2-10.6,13.9-15.8c0.4-0.3,0.4-0.9,0.1-1.3c0,0-0.1-0.1-0.1-0.1
						c-4.9-6.5-9.8-12.9-14.7-19.4C21.5,22,21.4,21.8,21.1,21.4z M55.5,55.6c-0.3-0.4-0.4-0.7-0.6-0.9C47.6,45.1,40.4,35.6,33.2,26
						c-0.4-0.7-1.3-1.1-2.1-1c-0.8,0.1-1.6,0-2.5,0c0.3,0.4,0.5,0.7,0.6,0.9c4.5,5.9,9,11.7,13.5,17.6c2.9,3.8,5.9,7.6,8.8,11.5
						c0.2,0.2,0.5,0.5,0.7,0.5C53.2,55.6,54.2,55.6,55.5,55.6z"/>
				</g>
			</g>
		</g>
	</g>
</g>
</svg>
