<svg xmlns="http://www.w3.org/2000/svg" viewBox="0 0 84.09 84.09"><defs><style>.cls-1,.cls-2{fill:#2f3e89;}.cls-1{fill-rule:evenodd;}</style></defs><g id="Capa_2" data-name="Capa 2"><g id="Text"><g id="Title"><g id="memorial_day" data-name="memorial day"><path class="cls-1" d="M42.05,0a42,42,0,1,0,42,42.05A42,42,0,0,0,42.05,0Zm0,75.55a33.51,33.51,0,1,1,33.5-33.5A33.5,33.5,0,0,1,42.05,75.55Z"/><g id="yyCemX.tif"><path class="cls-2" d="M21.13,21.37h.93c3.8,0,7.61,0,11.41,0a1.44,1.44,0,0,1,1.28.65c2.74,3.64,5.51,7.27,8.27,10.89.14.19.31.36.52.61l.58-.63c3.18-3.64,6.36-7.26,9.53-10.91A1.53,1.53,0,0,1,55,21.35c1.51,0,3,0,4.54,0,.25,0,.51,0,1,.05-.41.5-.68.85-1,1.19l-12.27,14c-.74.84-.73.84,0,1.74L62.3,58.4c.2.27.39.55.66.94-.4,0-.65,0-.91,0-3.7,0-7.41,0-11.12,0a1.43,1.43,0,0,1-1.28-.63c-3-4-6-8-9.08-11.93L39.85,46a6.71,6.71,0,0,1-.53.81c-3.47,4-7,8-10.42,12a1.72,1.72,0,0,1-1.5.66c-1.73,0-3.46,0-5.36,0a7.4,7.4,0,0,1,.47-.68c4.62-5.28,9.25-10.57,13.9-15.82a.91.91,0,0,0,0-1.41Q29.06,31.87,21.7,22.2C21.54,22,21.41,21.77,21.13,21.37ZM55.5,55.57c-.27-.41-.41-.66-.58-.88Q44,40.33,33.17,26a2.15,2.15,0,0,0-2.12-1c-.77.08-1.56,0-2.53,0,.3.44.45.69.62.91q6.72,8.81,13.45,17.6Q47,49.22,51.43,55c.18.24.46.54.71.55C53.18,55.61,54.22,55.57,55.5,55.57Z"/></g></g></g></g></g></svg>