<svg xmlns="http://www.w3.org/2000/svg" viewBox="0 0 84.09 84.09"><defs><style>.cls-1,.cls-2{fill:#2f3e89;}.cls-1{fill-rule:evenodd;}</style></defs><g id="Capa_2" data-name="Capa 2"><g id="Text"><g id="Title"><g id="memorial_day" data-name="memorial day"><path class="cls-1" d="M42.05,0a42,42,0,1,0,42,42.05A42,42,0,0,0,42.05,0Zm0,75.55a33.51,33.51,0,1,1,33.5-33.5A33.5,33.5,0,0,1,42.05,75.55Z"/><g id="fKRxgA.tif"><path class="cls-2" d="M43.17,45.87V64c0,1,0,1-1,1-2.85,0-5.7,0-8.55,0-.66,0-.86-.17-.86-.84,0-5.82,0-11.64,0-17.46,0-.72-.21-.89-.89-.86-1.46,0-2.92,0-4.38,0-.5,0-.68-.17-.67-.67,0-2.41,0-4.83,0-7.25,0-.58.22-.76.76-.75,1.46,0,2.93,0,4.39,0,.65,0,.79-.22.8-.83.05-2.3.06-4.6.28-6.88a11,11,0,0,1,9.78-10.18,29,29,0,0,1,9.65.33.54.54,0,0,1,.52.62c0,2.27,0,4.55,0,6.82,0,.48-.21.55-.61.54-1.41,0-2.83-.09-4.24,0a4.61,4.61,0,0,0-4,2.09,8.26,8.26,0,0,0-.94,3c-.17,1.24-.06,2.53-.11,3.8,0,.53.18.64.67.64,2.63,0,5.27,0,7.9,0,.67,0,.83.18.7.83-.46,2.4-.89,4.8-1.31,7.2-.09.54-.3.74-.89.73-2.06,0-4.12,0-6.18,0Z"/></g></g></g></g></g></svg>