<svg width="106" height="106" viewBox="0 0 106 106" fill="none" xmlns="http://www.w3.org/2000/svg">
<path fill-rule="evenodd" clip-rule="evenodd" d="M53 0C38.9435 0 25.4628 5.58059 15.5234 15.5141C5.58394 25.4476 3.75587e-05 38.9204 3.75587e-05 52.9685C-0.00825454 59.9297 1.35656 66.8243 4.01635 73.258C6.67613 79.6917 10.5787 85.5383 15.501 90.4636C20.4234 95.3889 26.2689 99.2961 32.7033 101.962C39.1376 104.628 46.0346 106 53 106C59.9654 106 66.8624 104.628 73.2968 101.962C79.7311 99.2961 85.5766 95.3889 90.499 90.4636C95.4213 85.5383 99.3239 79.6917 101.984 73.258C104.643 66.8243 106.008 59.9297 106 52.9685C106 38.9204 100.416 25.4476 90.4766 15.5141C80.5372 5.58059 67.0565 0 53 0ZM53 95.2802C47.4475 95.2802 41.9492 94.187 36.8195 92.063C31.6898 89.939 27.0291 86.8259 23.1034 82.9014C19.1778 78.9769 16.0642 74.3179 13.9404 69.1906C11.8167 64.0633 10.7246 58.5681 10.7262 53.0189C10.7262 41.8139 15.18 31.0678 23.1079 23.1446C31.0358 15.2214 41.7883 10.7703 53 10.7703C58.5525 10.7686 64.051 11.8602 69.1814 13.9826C74.3117 16.1051 78.9735 19.2168 82.9003 23.1401C86.8271 27.0635 89.942 31.7215 92.0673 36.8482C94.1925 41.9748 95.2864 47.4697 95.2864 53.0189C95.2864 64.2273 90.8313 74.9766 82.9011 82.9021C74.9708 90.8277 64.215 95.2802 53 95.2802Z" fill="white"/>
<path d="M72.3369 50.48V53.68L41.2169 69.88V64.28C41.2169 63.8267 41.3235 63.4133 41.5369 63.04C41.7769 62.6667 42.1635 62.3333 42.6969 62.04L59.8169 53.4C60.8835 52.84 62.1235 52.4 63.5369 52.08C62.1235 51.76 60.8835 51.32 59.8169 50.76L42.6969 42.12C42.1635 41.8267 41.7769 41.4933 41.5369 41.12C41.3235 40.7467 41.2169 40.3333 41.2169 39.88V34.28L72.3369 50.48Z" fill="white"/>
</svg>
