<svg width="106" height="106" viewBox="0 0 106 106" fill="none" xmlns="http://www.w3.org/2000/svg">
<path fill-rule="evenodd" clip-rule="evenodd" d="M53 106C67.0565 106 80.5372 100.419 90.4766 90.4859C100.416 80.5524 106 67.0796 106 53.0315C106.008 46.0703 104.643 39.1757 101.984 32.742C99.3239 26.3083 95.4213 20.4617 90.499 15.5364C85.5766 10.6111 79.7311 6.70387 73.2967 4.03802C66.8624 1.37216 59.9654 -3.1299e-06 53 2.41188e-06C46.0346 -1.91204e-06 39.1376 1.37216 32.7032 4.03802C26.2689 6.70388 20.4233 10.6112 15.501 15.5364C10.5787 20.4617 6.67612 26.3083 4.01634 32.742C1.35656 39.1757 -0.00826194 46.0703 3.07689e-05 53.0315C3.1997e-05 67.0797 5.58394 80.5524 15.5234 90.4859C25.4628 100.419 38.9435 106 53 106ZM53 10.7198C58.5525 10.7198 64.0507 11.813 69.1805 13.937C74.3102 16.061 78.9709 19.1741 82.8966 23.0986C86.8222 27.0231 89.9358 31.6821 92.0596 36.8094C94.1833 41.9367 95.2754 47.4319 95.2738 52.9811C95.2738 64.1861 90.82 74.9322 82.8921 82.8554C74.9642 90.7786 64.2117 95.2297 53 95.2297C47.4475 95.2314 41.949 94.1398 36.8186 92.0174C31.6883 89.8949 27.0265 86.7832 23.0997 82.8599C19.1729 78.9365 16.058 74.2785 13.9327 69.1519C11.8075 64.0252 10.7136 58.5303 10.7136 52.9811C10.7136 41.7727 15.1687 31.0234 23.0989 23.0979C31.0292 15.1723 41.7849 10.7198 53 10.7198Z" fill="white"/>
<path d="M33.6631 55.52L33.6631 52.32L64.7831 36.12L64.7831 41.72C64.7831 42.1733 64.6765 42.5867 64.4631 42.96C64.2231 43.3333 63.8365 43.6667 63.3031 43.96L46.1831 52.6C45.1165 53.16 43.8765 53.6 42.4631 53.92C43.8765 54.24 45.1165 54.68 46.1831 55.24L63.3031 63.88C63.8365 64.1733 64.2231 64.5067 64.4631 64.88C64.6765 65.2533 64.7831 65.6667 64.7831 66.12L64.7831 71.72L33.6631 55.52Z" fill="white"/>
</svg>
