<svg xmlns="http://www.w3.org/2000/svg" viewBox="0 0 99.8 99.6"><defs><style>.cls-1{fill:#fff;}</style></defs><g id="Capa_2" data-name="Capa 2"><g id="Capa_1-2" data-name="Capa 1"><g id="bcGxRV.tif"><path class="cls-1" d="M50,63.69c-3.42,3.4-6.73,6.65-10,9.93C32.56,81.05,25.2,88.52,17.8,95.94c-3.51,3.52-8.17,4.5-12.08,2.68a10,10,0,0,1-4-14.6,22.69,22.69,0,0,1,2.81-3.16Q19.36,66.17,34.19,51.54c.52-.52,1-1.09,1.7-1.85-3.54-3.52-7-7-10.44-10.39C18.22,32.17,11,25.08,3.75,17.94-.34,13.89-1.13,8.63,1.61,4.36,5.05-1,12.84-1.5,17.68,3.36Q32.82,18.59,47.91,33.84c.63.63,1.3,1.22,1.81,1.69C55.24,30.14,60.63,25,65.94,19.71c5.49-5.45,10.87-11,16.37-16.45A10.2,10.2,0,0,1,92.62.4a9,9,0,0,1,7,7.36c.83,4.12-.73,7.47-3.63,10.33Q80.83,33,65.71,47.86c-.53.52-1.16.94-2,1.63,2.46,2.47,4.65,4.71,6.87,6.91Q83.41,69.12,96.27,81.85c3.64,3.62,4.48,8.14,2.46,12.29-2.61,5.31-9.69,7.27-14.46,3.52-3.77-3-7-6.58-10.43-10-7.59-7.59-15.12-15.23-22.68-22.85C50.87,64.53,50.56,64.26,50,63.69Z"/></g></g></g></svg>